<svg xmlns="http://www.w3.org/2000/svg" xml:space="preserve" id="Layer_1" x="0" y="0" version="1.1" viewBox="0 0 1024 1024"><style id="style1" type="text/css">.st8{fill:#fff}</style><g id="g6" transform="translate(-424.58 -424.57) scale(.93658)"><g id="g5"><g id="g2"><linearGradient id="SVGID_1_" x1="1024.96" x2="1002.51" y1="431.49" y2="931.05" gradientUnits="userSpaceOnUse"><stop id="stop1" offset="0" stop-color="#ffb304"/><stop id="stop2" offset="1" stop-color="#ed1f21"/></linearGradient><path id="path2" fill="url(#SVGID_1_)" d="m1263.23 1044.45-42.46-42.46c24.33-62.82 14.87-131.05-7.4-185.75-10.02 30.54-26.16 61.47-51.77 75.46-14.31 7.71-37.37 13.76-66.72-1.59-18.13-9.54-29.98-22.9-35.23-39.76-9.38-30.3 6.36-60.04 16.78-79.76 2.23-4.13 4.45-8.35 5.41-10.66 12.09-29.98 18.21-84.61-42.3-155.7 3.18 27.83.95 54.95-6.76 81.35-9.7 33.64-28.39 66.24-55.98 98.05-71.65 82.62-93.59 119.99-58.53 214.78a27.7 27.7 0 0 1-6.6 29.5 27.85 27.85 0 0 1-29.58 6.04c-47.39-18.45-73.32-51.77-91.68-100.75-26.48 59.64-38.25 137.41-5.88 206.91l-41.59 41.59c-67.19-118-22.82-259.31 33.64-335.01a27.87 27.87 0 0 1 27.91-10.66 28.04 28.04 0 0 1 21.47 20.83c6.6 27.75 13.28 49.14 20.28 65.84-.4-68.31 36.18-115.22 88.5-175.5 60.43-69.66 66.32-138.36 19.24-222.73a27.8 27.8 0 0 1 33.31-39.92c2.62.95 5.17 2.31 7.55 4.06 171.68 127.94 160.47 238 138.6 292.15-2.07 5.01-4.85 10.26-7.79 15.82-5.33 10.18-15.35 29.1-12.8 37.29.87 2.86 5.25 5.57 7.79 6.84 9.22 4.85 12.64 2.94 14.31 2.07 19.4-10.58 34.83-69.42 38.41-107.91a27.9 27.9 0 0 1 20.2-24.17 27.76 27.76 0 0 1 29.82 10.1c54.72 73.33 97.97 208.03 39.85 323.65z"/></g><g id="g4"><g id="g3"><path id="polygon2" d="m758.37 1205.64 175.57-175.58 42.78 42.7-132.87 132.88 81.58 81.58 51.29 51.29-42.78 42.78-64.33-64.33z" class="st8"/><path id="polygon3" d="m1119.32 1205.66 132.88-132.88-42.75-42.75-175.63 175.63 175.63 175.63 42.75-42.74z" class="st8"/></g><path id="polygon4" d="m944.44 1256.85-48.35-48.43 42.7-42.7 28.87 28.86 146.79 146.79-175.66 175.58-42.7-42.7 132.88-132.88z" class="st8"/></g><linearGradient id="SVGID_2_" x1="731.64" x2="1332.23" y1="848.34" y2="773.5" gradientUnits="userSpaceOnUse"><stop id="stop4" offset="0" stop-color="#ffb304"/><stop id="stop5" offset="1" stop-color="#ed1f21"/></linearGradient><path id="path5" fill="url(#SVGID_2_)" d="m1039.54 604.24-6.76 81.35c-9.7 33.64-28.39 66.24-55.98 98.05-71.65 82.62-93.59 119.99-58.53 214.78a27.7 27.7 0 0 1-6.6 29.5 27.85 27.85 0 0 1-29.58 6.04c-47.39-18.45-73.32-51.77-91.68-100.75-26.48 59.64-38.25 137.41-5.88 206.91l-41.59 41.59c-67.19-118-22.82-259.31 33.64-335.01a27.87 27.87 0 0 1 27.91-10.66 28.04 28.04 0 0 1 21.47 20.83c6.6 27.75 13.28 49.14 20.28 65.84-.4-68.31 36.18-115.22 88.5-175.5 60.43-69.66 66.32-138.36 19.24-222.73a27.8 27.8 0 0 1 33.31-39.92c27.28 32.13 34.92 67.6 52.25 119.68z"/></g></g></svg>