<?xml version="1.0" standalone="no"?>
<!DOCTYPE svg PUBLIC "-//W3C//DTD SVG 20010904//EN"
 "http://www.w3.org/TR/2001/REC-SVG-20010904/DTD/svg10.dtd">
<svg version="1.0" xmlns="http://www.w3.org/2000/svg"
 width="700.000000pt" height="700.000000pt" viewBox="0 0 700.000000 700.000000"
 preserveAspectRatio="xMidYMid meet">
<metadata>
Created by potrace 1.14, written by Peter Selinger 2001-2017
</metadata>
<g transform="translate(0.000000,700.000000) scale(0.100000,-0.100000)"
fill="#000000" stroke="none">
<path d="M1808 5153 l-933 -933 930 -930 c511 -511 933 -930 936 -930 5 0 392
383 433 429 l20 22 -704 704 c-387 387 -702 707 -700 709 3 3 319 320 703 704
383 384 697 702 697 706 0 4 -101 108 -224 230 l-224 223 -934 -934z"/>
<path d="M4740 5156 c-508 -508 -926 -928 -927 -933 -2 -4 415 -427 927 -938
l930 -930 227 227 228 228 -700 700 c-385 385 -701 704 -703 709 -1 4 313 323
698 708 385 385 700 703 700 707 0 9 -439 446 -448 446 -4 0 -424 -416 -932
-924z"/>
<path d="M2562 4416 l-223 -223 707 -708 707 -707 -707 -706 -706 -707 227
-227 227 -227 934 933 934 933 -932 932 c-512 512 -934 931 -938 931 -4 0
-107 -101 -230 -224z"/>
</g>
</svg>
